<svg xmlns="http://www.w3.org/2000/svg" viewBox="0 0 334.48 449.21"><defs><style>.cls-1{fill:#fbf9ed;}.cls-2{fill:#beb19c;}.cls-3{fill:#5b4738;}.cls-4{fill:#ccc1ad;}.cls-5{fill:#d5ccb9;}.cls-6{fill:#5d493a;}.cls-7{fill:#c7bba8;}.cls-8{fill:#ad9b7a;}.cls-9{fill:#dad1bf;}.cls-10{fill:#e6e0cf;}.cls-11{fill:#d1c6b4;}.cls-12{fill:#f6f3e6;}.cls-13{fill:#ece8d8;}.cls-14{fill:#b9a989;}.cls-15{fill:#e0d8c8;}</style></defs><title>codechef</title><g id="Layer_2" data-name="Layer 2"><g id="Layer_3" data-name="Layer 3"><path class="cls-1" d="M161.05,258.27l-12.11,0c-1.43-1.73-3.44-1.09-5.1-.89-6.19.76-12.47,1.29-18.41,3.34-3.15,1.08-7,.4-9.36,3.57h0c-1.4,0-2.91-.42-4,.94a19.16,19.16,0,0,1-8.94,3c-1.73-.09-3.32.11-4,2l0,0c-2.5,0-5.13-.22-6,3l0,0a6.8,6.8,0,0,0-6.18,3,5.38,5.38,0,0,1-.69-.07A2.62,2.62,0,0,0,84,277.31l-.39,0c-2.89-4-.66-8.67-1.43-12.95,0-1.36,0-2.73-.07-4.09v-1.84c-.21-2.82,1-5.87-1-8.75-1.86,2.59.37,5.65-1.88,7.72-2.17-3.12-5.9-4.84-7.6-8.38-3.86-8.07-9.45-15.55-11.21-24.34-3.52-17.51-11.67-33.49-15.06-51.17-4.49-23.38-15.8-44.81-22.93-67.52-4.07-13-3.82-25.69-.08-38.56.28-1,.77-1.4,1.74-1.33.25,1.44-.08,3.09,1.21,4.19C34.16,77.9,36,89,39.29,99.34c6.94,21.84,8.94,44.8,14.94,66.89,4.25,15.67,7.38,31.64,15.09,46.15.27,6.21,4.76,10.28,7.56,15.22-1.11-5.91-4.38-10.89-6.58-16.32-.75-3.54-1.25-7.16-2.29-10.62-6.72-22.2-9.35-45.18-13-68,1.84-1.35,1.29-3.37,1.09-5-1.3-10.76-2.54-21.54-4.25-32.24-2.29-14.3-4.8-28.55-4.67-43.11.05-5.54-2.37-8-8-8.4-1.36-1.08-2,.21-2.85.86-1-4.8,3.43-5.75,6-7.07,8.39-4.4,16.43-9.58,26.37-10.61,14.55-1.49,27-9.37,40.29-14.58,9.51-3.73,18.48-9,29-9.65,3.68.07,7.25-1.4,11-.74-.47,4.61,1.14,9.37-1,13.86-.76-1.55-1.57-3.07-2.26-4.66s-1-3.87-3.77-3.3c-15-1.69-22.63,6.87-26,18a102.61,102.61,0,0,0-4.75,27.81c-.25,12-.27,23.9,1,35.79,1.34,12.18,2.09,24.49,4.45,36.47,4.31,21.91,9,43.79,15.65,65.14,1.66,5.32,3.79,10.49,5.71,15.73a12,12,0,0,0,.51-6.26c-2-14.76-5.77-29.23-7.35-44.06,3.68-1.78,1.72-5.33,2.17-7.93,1.9-10.71,3.52-21.49,4.59-32.31C139,105,140.8,93.8,142.65,82.58A414,414,0,0,0,148,38.9,4.09,4.09,0,0,1,152,43.2c.18,7.38.14,14.65,1.75,22,1.45,6.66.61,13.81,1.08,20.76,1,14.2.47,28.5,1.29,42.72,1.16,20.4-2.95,40.94,2.6,61.29,1.81,6.63,0,14.17,1.27,21.23l-7.93.25c-12.64.3-24.52,3.66-35.92,8.94-3-.37-5.08,2.17-7.93,2.27-.3,0-.87,1-.81,1.52.15,1.24,1.13,1,1.82.56,2.33-1.42,5.36-1.73,6.9-4.38,7.64.13,14-4.71,21.49-5.42,4.84-.46,9.62-1.68,14.42-2.56l4,.13c.34,9,.66,17.95,1,26.92.22,5.57-1.52,11.6,3.8,16,.36.3.16,1.27.22,1.92A6.4,6.4,0,0,0,161.05,258.27ZM76.17,34.87l0,0c-.3-1.11-1.15-1.11-2-1l0,0a2.84,2.84,0,0,0-3.09-1.77c-4.62-1.61-9.27-2.09-13,1.75-2.5,2.61-.77,8.81,2.87,13.55a41.14,41.14,0,0,1,7.71,16,383,383,0,0,1,7.47,48c1.59,18,3,36,6.09,53.73a155.3,155.3,0,0,0,13.88,41.23c.32.65.7,1.57,1.52.83s0-1.33-.54-1.86C94,198.05,92.54,190.27,91,182.5c-4-20.39-4.15-41.11-5.12-61.75a2.31,2.31,0,0,0,1.2-2c0-7.8.54-15.66-.16-23.41-1.42-15.65-3.64-31.3-2.48-47,.47-6.36-2.06-9.39-6.33-12.43C77.81,34.9,77.05,34.77,76.17,34.87Zm26.88,193.45a2.19,2.19,0,0,0-2,1,3.36,3.36,0,0,0-2.9,2.11,2.05,2.05,0,0,0-2.09.88c-1.16.2-2.19.61-2.51,1.88-.15.58.2,1,.78.83,1.29-.27,1.75-1.27,2-2.44a2.1,2.1,0,0,0,1.85-1.15c1.41,0,2.79,0,3.14-1.83l1.9-1.12,1-1c.77-.14,1.59-.25,1.55-1.33a.48.48,0,0,0-.34-.31c-1.07,0-1.21.74-1.29,1.56Zm-2-14.78a2.76,2.76,0,0,0,1.5,2.29c.08,0,.48-.35.49-.55a2.33,2.33,0,0,0-1.59-2.18c-.33-1.83-.79-3.58-3.22-4.88A8.13,8.13,0,0,0,101,213.54Z"/><path class="cls-2" d="M322.46,133.61a2.1,2.1,0,0,1-.89,2,30.68,30.68,0,0,0-10.92,16.08c-.31.65-.61,1.29-.91,1.94-4.44,3.89-9.16,7.59-10.06,14l-.95,1.92c-1.5-.12-2.45.76-3.38,1.78s-1.14,3.28-3.09,2.64c-2.29-.75-1.59-3-1.6-4.75q-.07-15,0-29.91c0-3.55-.85-6.88-1.95-11-5.21,15.21-11.88,28.9-16.3,43.45-.67,2.2-2.05,4.19-1.73,6.64-1.43.07-1.76,1.09-2.19,2.24-2.84,7.6-5.77,15.17-8.64,22.76-.63,1.65-.76,3.63-3.06,4-.15-8.8,1.91-17.35,2.93-26,1.66-14.12,4.57-28,9.84-41.22,5.37-13.46,9.41-27.42,16.08-40.42C291.9,87.61,296.7,74.49,309.51,67c-3.88.64-7.78,1.65-10.43,4.86-4,4.83-7.61,9.94-11.39,14.92-1.58-1.26-.93-3-1-4.61-.95-14.23,2-28.61-1.89-42.75-1-3.56.47-5.62,4.47-3.22,1,.58,1.86.67,2.48-.5l2,1.09c.25,3,2.09,4.19,4.94,4.11h0c.47,4.23,2.72,6.63,7.05,6.93v0c.71,2.81,2.13,5,5,6h0c-.18,2.89,1,4.71,4,5l0,0a15.68,15.68,0,0,0,6.93,9.07l1,1.92c1.42,4.83,3.1,9.49,8,12h0c.43,3.08.85,6.16,3.8,8,0,3.31,0,6.62,0,9.93-2.58.91-2.19,2.37-.75,4-.13,1.31-.27,2.62-.4,3.93-1.23.34-2.12.8-.67,2-.05.66-.09,1.32-.13,2-.45.18-1.16.24-1.31.57-2.9,6.07-5.77,12.15-8.56,18.27C322.08,131.45,321.12,132.57,322.46,133.61Z"/><path class="cls-3" d="M73.62,404.55c2.53.39,4,1.94,5.28,3.26,9.23,9.37,26.85,8.67,37.38,1.65,10.31-6.87,21.58-10.88,34.32-6.55,9.83,3.35,14.18,13.95,8.74,22.9-8.85,14.55-22.28,21.82-39,23-5.76.4-11.67.86-17.38-.47C81.77,443.39,69.87,427.69,73.62,404.55Z"/><path class="cls-3" d="M257,404c2.22,11.32.93,21.69-5.24,30.19a35.11,35.11,0,0,1-24.69,14.35c-12.19,1.3-24.56,1.45-35.89-4.87-9.71-5.41-18.81-11.26-20.6-23.61-1.27-8.82,2.66-14.72,11.12-17.44,9.73-3.13,18.56-.73,27.19,3.59,7.76,3.88,14.86,9.19,24.34,8.81a30.36,30.36,0,0,0,20.55-8.5C254.64,405.7,255.61,405.07,257,404Z"/><path class="cls-4" d="M255.89,15.69a13.38,13.38,0,0,1,5.86,2.09c0,1.11.82,1.55,1.5,2.28,2.17,2.31,6.34,3.18,6.33,7,0,5.15.8,10.21,1.05,15.31.58,11.56-.21,23.12.85,34.73,1.18,12.9.85,25.94,1.21,38.91.05,1.59-.55,3.37,1,4.64q-4.94,15-9.89,30c-3.77-2.75-4.85-7.08-5-11.11-.37-12.83-1.93-25.57-1.34-38.49.56-12.37-.74-24.82-.72-37.24,0-9.78-1.79-19.48-1.1-29.27a2.76,2.76,0,0,0-1-2.65c-.7-2.7,2.17-5.37.15-8.63-2.56,5.36-4.33,10.56-8.06,14.65a5.89,5.89,0,0,1-3-5.36c-.11-3.45,0-6.92,0-10.38,0-8.13-.57-8.83-8.51-10.1a24.87,24.87,0,0,0-3.46-.1c-7.2-2.15-14.42-4.24-21.95-5-4.59-1.06-9.15-2.32-13.94-2a41.19,41.19,0,0,0-12-2l0-1.7c18.82,1.15,37.14,5.08,55.35,9.7,3.83,1,7.63,2.06,11.44,3.09C251.87,16.39,253.47,17.3,255.89,15.69Z"/><path class="cls-5" d="M249.65,277.2c.48,2.52-.53,4.87-.84,7.3-.66,5.22-2.45,6.18-6.36,2.82-2.5-2.15-6-2.91-7.8-5.89,2.78-.43,3.15-2.35,3.14-4.72,0-11.37.16-22.75-.15-34.11-.08-3,.63-6.53-1.86-9.21,2.39,0,4.92.13,4.94-3.3,0-4.14.2-8.31-.14-12.42-1.17-14.1-3.52-28.17-3.6-42.26-.15-27.48-1.93-54.92-1.21-82.41a11.88,11.88,0,0,1,0-2c.33-1.92-.85-3.08-2-4.26,2.19-5.05,3.54-10.49,6.91-15,1.91,2.89,2,6.14,2.09,9.45.49,16.88-.58,33.76.8,50.67,1.19,14.65.89,29.44,1.16,44.16.12,6.47,0,12.95,0,19.42,0,1.79-.43,4.09,1.8,4.68,3.36.9,3.2,3.26,3.19,5.82,0,7.21-.33,14.45,2,21.43-.35,1.33-.7,2.66-1.06,4l0,0a1.88,1.88,0,0,0-1,2l0,0c-.76.27-1.5.62-1.32,1.57,0,.2.8.26,1.23.39,2.21,5.28.89,10.73.66,16.11,0,.32-1,.6-1.57.89-.17-.67.36-1.58-1-2.14v5.14l1,2C249.31,263.92,247.57,270.65,249.65,277.2Zm-5.89-35.85-1-1-.43-.22.42.24,1,1,1,1,1,1a2.06,2.06,0,0,0,1,2l.38,1.29.37-.24-.74-1.06a2.07,2.07,0,0,0-1-2l-1-1Zm3-4a1.39,1.39,0,0,0-.35.16c-.06.05,0,.18-.07.27l.44-.41a1.08,1.08,0,0,0,.37-.19c.06-.05,0-.19.06-.29Z"/><path class="cls-6" d="M57.63,381.11c-2.73.23-4.78-1-6.9-2.48-13.39-9.31-28.24-15.78-43.36-21.56C.13,354.3-2,349.6,2.05,342.66a18.6,18.6,0,0,1,8.1-7.18c9.22-4.49,17.9-10,27.54-13.71a25.1,25.1,0,0,0,9.56-6.15c3-3.26,6.81-2.56,10.13-1.13,4.11,1.77,4.51,5.89,1.31,9.11A43.34,43.34,0,0,1,40,334.31a42.41,42.41,0,0,0-16,9.59c-2.2,2-2.83,3.71.34,5.38,4.68,2.48,9,5.93,14,7.42,9.62,2.87,17.79,8.76,27.17,12,2.18.75,2.55,2.46,2.51,4.33a7.32,7.32,0,0,1-3.73,6.63A13,13,0,0,1,57.63,381.11Z"/><path class="cls-6" d="M269.39,312.94c6.19.68,11.5,4.8,17.6,6.75A77.57,77.57,0,0,1,313.83,335c3.64,3.09,3.8,7.46-.16,10.27q-14.34,10.14-28,21.18a124.58,124.58,0,0,1-14.52,10.24c-2.52,1.5-5.28,2.39-7.52-.63-2.06-2.78-1.8-5.24.42-8.06,3.64-4.6,9.22-6.3,13.66-9.7,3.52-2.7,7.25-5.07,10.45-8.23a17.62,17.62,0,0,1,7.13-4.32c4.62-1.45,4.89-3.3,1.71-7.07-3.44-4.08-8.47-4.9-13.05-6.64-6.9-2.63-14.53-3.44-20.47-8.46-1.68-1.42-4.78-1.9-3.48-5,1.16-2.8,3-5.17,6.48-5.43C267.31,313,268.14,313,269.39,312.94Z"/><path class="cls-7" d="M273.72,120.68c-1.58-1.27-1-3.05-1-4.64-.36-13,0-26-1.21-38.91-1.06-11.61-.27-23.17-.85-34.73-.25-5.1-1.07-10.16-1.05-15.31,0-3.85-4.16-4.72-6.33-7-.68-.73-1.49-1.17-1.5-2.28,10.31,5.43,22,8.52,30,17.9-.62,1.17-1.52,1.08-2.48.5-4-2.4-5.45-.34-4.47,3.22,3.88,14.14.94,28.52,1.89,42.75.11,1.58-.54,3.35,1,4.61C283.4,98.22,277.37,109,273.72,120.68Z"/><path class="cls-8" d="M55.06,132.69c3.6,22.79,6.23,45.77,13,68,1,3.46,1.54,7.08,2.29,10.63l-1,1.09c-7.71-14.51-10.84-30.48-15.09-46.15-6-22.09-8-45-14.94-66.89C36,89,34.16,77.9,25.22,70.25c-1.29-1.1-1-2.75-1.21-4.19a16.37,16.37,0,0,0-.26-7.56c.26-1.17.53-2.34.79-3.52,1.74-.37,1.84-1.69,1.79-3.1,1-1.93,2.06-3.83,4.12-4.88,1.06,0,2.24-.37,2.91.89a30.9,30.9,0,0,0-5.5,8.79c-1,2.33-1,4.58,1.18,6.27,3.37,2.61,6.83,5.11,10.26,7.66,6.76,7.86,7.1,17.8,9,27.28C50.54,109.49,51.59,121.33,55.06,132.69Z"/><path class="cls-7" d="M270.66,178.49c-.32-2.45,1.06-4.44,1.73-6.64,4.42-14.55,11.09-28.24,16.3-43.45,1.1,4.08,2,7.41,1.95,11q0,15,0,29.91c0,1.73-.69,4,1.6,4.75,1.95.64,2.16-1.62,3.09-2.64s1.88-1.9,3.38-1.78c-.22,2.94-2.73,4.39-4.19,6.54-8.27,12.24-17.16,24.12-22.73,38-2.1,5.22-2.27,10.88-3.92,16.19a12.23,12.23,0,0,1-1.12,2.11,1.54,1.54,0,0,1-.71-1.68c1.9-8,4.11-15.95,5.59-24C273.39,197.3,273.88,187.79,270.66,178.49Z"/><path class="cls-6" d="M222.38,347.11c.05,6.71-1.17,13.2-7.14,17.05-8,5.15-15.68,2.27-21.29-7.25-5.9-10-3.37-21.89,5.5-25.84C212.33,325.34,222.34,332.35,222.38,347.11Zm-16.77,6.1a5.1,5.1,0,0,0,4.77-5.31c.05-3-1.94-4.89-5-4.87s-5.21,1.65-5.14,4.77S202.22,352.9,205.61,353.21Z"/><path class="cls-6" d="M138.14,347.42c0,11.3-2.89,16.23-11.38,18.91a11.17,11.17,0,0,1-12.21-3c-6.17-6.15-9.4-13.21-7.7-21.94,1.46-7.51,9.46-12.54,18.41-11.35,6.91.91,13.81,4.33,12.9,13.86C138.05,345.09,138.14,346.26,138.14,347.42Zm-15,5c3.23.47,4.16-2.16,4.34-4.88.2-2.89-1.17-5.35-4.45-5.34-3.07,0-5.68,1.66-5.72,4.94C117.28,350.21,119.23,352.29,123.16,352.39Z"/><path class="cls-9" d="M235.78,233.39c2.49,2.68,1.78,6.17,1.86,9.21.31,11.36.1,22.74.15,34.11,0,2.37-.36,4.29-3.14,4.72l.07-.11a1.78,1.78,0,0,0-2-1h0c-.41-.95-1.22-1.05-2.1-1l-.91-.83c-.14-.67-.37-1-.92-.26l-4-1.86a1.87,1.87,0,0,0-2-1h0l.06-1.09q0-15.84,0-31.68c0-1.63.48-3.69-1.09-4.62-6-3.53-3.84-8.62-2.91-13.52l1,0c.71,1.18,1.9,1,3,1h0l1,1h0a2,2,0,0,0,2,1h0a2,2,0,0,0,2,1h0a2,2,0,0,0,2,1h0l1,1h0a2,2,0,0,0,2,1h0a3,3,0,0,0,3,2Z"/><path class="cls-10" d="M195.49,264.35l-.25,0H195c0-.39-.07-.78-.1-1.17.71-15.6-4.43-31.07-1-46.73,4.32,1,8.38,3.23,13,2.94h0l3,2a43,43,0,0,0-.93,14.72c1.05,10.69,1,21.39.9,32.1l-2,.09,0,0-1-1,0,0c-.69-1.29-1.9-1-3-1l0,0c-1-1.55-2.63-.87-4-1h-.5l-.5,0C198,264,196.7,264.33,195.49,264.35Z"/><path class="cls-11" d="M248.73,257.31l-1-2c2.62-.24,1.53-1.71,1-3,.55-.29,1.55-.57,1.57-.89.23-5.38,1.55-10.83-.66-16.11l.09-2,0,0a2,2,0,0,0,1-2l0,0c2.66-.34,1.89-2.41,2-4l0,0a59.7,59.7,0,0,0,4.11-18c1.5.9,4.22-2.6,4.76.94.91,6.09,3,12,2.2,18.38-.24,1.81-.79,4,.92,5.59l.08,3.52-1,1c0,1.33-.34,2.75,1.09,3.64-.08.63-.15,1.25-.23,1.88l-.94,1c0,1.64,0,3.28,0,4.91-2.54.28-2.42,2.59-2.78,4.15a39.07,39.07,0,0,1-5.6,13.65c-1.08,1.57-1.62,4.3-4,3.57s-1.28-3.39-1.54-5.26C249.31,263.41,250.74,260.17,248.73,257.31Z"/><path class="cls-11" d="M23.75,58.5A16.37,16.37,0,0,1,24,66.06c-1-.07-1.46.38-1.74,1.33-3.74,12.87-4,25.59.08,38.56,7.13,22.71,18.44,44.14,22.93,67.52,3.39,17.68,11.54,33.66,15.06,51.17,1.76,8.79,7.35,16.27,11.21,24.34,1.7,3.54,5.43,5.26,7.6,8.38.7,1.12,1.88.86,2.91,1v1.84l-1,.2c-5.09-.59-8-4.84-9.86-8.32-3-5.66-6.75-10.94-9.33-16.93-4.2-9.79-5.9-20.29-9.63-30.19-7.57-20.14-11-41.52-18.28-61.73-2.48-6.85-6-13.32-8.34-20.22-4.67-13.93-10.4-27.74-8.27-43C18.38,72.55,19.13,64.94,23.75,58.5Z"/><path class="cls-4" d="M264.7,234.37c-1.71-1.62-1.16-3.78-.92-5.59.84-6.34-1.29-12.29-2.2-18.38-.54-3.54-3.26,0-4.76-.94,0-.41-.07-.83-.11-1.24a2.36,2.36,0,0,1,0-.53l0-.21c2.3-.36,2.43-2.34,3.06-4,2.87-7.59,5.8-15.16,8.64-22.76.43-1.15.76-2.17,2.19-2.24,3.22,9.3,2.73,18.81,1,28.22-1.48,8.09-3.69,16-5.59,24a1.54,1.54,0,0,0,.71,1.68c0,.65-.11,1.3-.16,1.95Z"/><path class="cls-6" d="M146.12,313.17c0,1.27-1.38,1.44-2.24,2.09-1.21.92-2.34,1.24-3.28-.38-3.14-5.4-7.85-5.33-13-3.66-4.08,1.32-8.2,2.58-12.19,4.13-8.72,3.4-14.84-1.68-19.55-7.65-1.35-1.72,0-2.4,1.13-3s2.16-2.55,3.79-.81a18.39,18.39,0,0,1,1.73,2.43c3.06,4.54,6.25,5.7,11.38,3.86,4.67-1.68,9.26-3.57,13.88-5.37C133.69,302.53,145.32,307.7,146.12,313.17Z"/><path class="cls-11" d="M33.36,47.89c-.67-1.26-1.85-.89-2.91-.89,9-13.1,22.12-19.51,37.23-21.83a66.75,66.75,0,0,0,18.48-5.28C96.33,15.13,107,11.47,117,6.27c6.52-3.4,13.73-4.6,21-5.09V2.84c-10.5.68-19.47,5.92-29,9.65C95.72,17.7,83.28,25.58,68.73,27.07c-9.94,1-18,6.21-26.37,10.61-2.52,1.32-6.94,2.27-6,7.07A6.64,6.64,0,0,1,33.36,47.89Z"/><path class="cls-6" d="M152.36,380.29c13.21,13.68,19.48,14.4,30.78,4,1.14,4.43-4.08,9.88-11,12.29C165.46,398.94,154.42,390.78,152.36,380.29Z"/><path class="cls-4" d="M248.73,257.31c2,2.86.58,6.1,1,9.13.26,1.87-.84,4.54,1.54,5.26s3-2,4-3.57a39.07,39.07,0,0,0,5.6-13.65c.36-1.56.24-3.87,2.78-4.15a42.64,42.64,0,0,1-7.84,21.06c-.91,1.32-2,2.86-3.87,2.83-2.28,0-2.19,1.49-2.33,3C247.57,270.65,249.31,263.92,248.73,257.31Z"/><path class="cls-5" d="M138,2.84V1.18C153.32-.71,168.64,0,184,1.23c0,.57,0,1.13,0,1.7l-2,.07c-6.61-1.21-13.28-1.11-20-1L149,2.1C145.25,1.44,141.68,2.91,138,2.84Z"/><path class="cls-9" d="M116.07,264.31c2.35-3.17,6.21-2.49,9.36-3.57,5.94-2.05,12.22-2.58,18.41-3.34,1.66-.2,3.67-.84,5.1.89C137.83,259.48,127,262,116.07,264.31Z"/><path class="cls-5" d="M194.88,263.22c0,.39.06.78.1,1.17-10.64-2.23-21.1-5.56-32.16-5.28-.58,0-1.18-.55-1.77-.84a6.4,6.4,0,0,1-.05-.88l8.94,0C178.26,259.32,186.75,260.49,194.88,263.22Z"/><path class="cls-7" d="M322.46,133.61c-1.34-1-.38-2.16.05-3.09,2.79-6.12,5.66-12.2,8.56-18.27.15-.33.86-.39,1.31-.57A54.67,54.67,0,0,1,322.46,133.61Z"/><path class="cls-7" d="M310.65,151.72a30.68,30.68,0,0,1,10.92-16.08A42.64,42.64,0,0,1,310.65,151.72Z"/><path class="cls-7" d="M299.68,167.68c.9-6.43,5.62-10.13,10.06-14C308.22,159.65,303.1,163.06,299.68,167.68Z"/><path class="cls-7" d="M330.58,81.74c-4.89-2.52-6.57-7.18-8-12C326.4,73,328.73,77.2,330.58,81.74Z"/><path class="cls-7" d="M321.57,67.81a15.68,15.68,0,0,1-6.93-9.07C318.69,60.44,320.39,63.92,321.57,67.81Z"/><path class="cls-7" d="M305.67,47.8c-4.33-.3-6.58-2.7-7.05-6.93Z"/><path class="cls-5" d="M82.13,264.32c.77,4.28-1.46,8.9,1.43,12.95-2.33,1.82-2.4,0-2.41-1.59,0-3.79,0-7.58,0-11.37h.47Z"/><path class="cls-7" d="M310.66,53.79c-2.87-1-4.29-3.21-5-6C308.86,48.51,309.85,51.08,310.66,53.79Z"/><path class="cls-7" d="M334.37,89.78c-2.95-1.89-3.37-5-3.8-8C333.46,83.64,333.45,86.93,334.37,89.78Z"/><path class="cls-7" d="M298.62,40.88c-2.85.08-4.69-1.06-4.94-4.11C296.13,37.17,297.52,38.85,298.62,40.88Z"/><path class="cls-7" d="M314.67,58.77c-3.07-.28-4.21-2.1-4-5C312.45,55.06,314.15,56.44,314.67,58.77Z"/><path class="cls-5" d="M207.79,268.31l2-.09c2,.46,4,1,5,3.06l0,.07A12.1,12.1,0,0,1,207.79,268.31Z"/><path class="cls-7" d="M255.89,15.69c-2.42,1.61-4,.7-5.15-1.67A7,7,0,0,1,255.89,15.69Z"/><path class="cls-9" d="M93.13,273.29c.88-3.23,3.51-3,6-3A11.78,11.78,0,0,1,93.13,273.29Z"/><path class="cls-9" d="M87,276.31a6.8,6.8,0,0,1,6.18-3C91.72,275.54,89.52,276.27,87,276.31Z"/><path class="cls-7" d="M333.58,103.74c-1.44-1.66-1.83-3.12.75-4C334.48,101.13,334.79,102.58,333.58,103.74Z"/><path class="cls-7" d="M264.88,242.49c-1.43-.89-1.12-2.31-1.09-3.64C266,239.5,266.24,240.76,264.88,242.49Z"/><path class="cls-9" d="M99.12,270.3c.73-1.92,2.32-2.12,4-2C102.36,270,100.86,270.41,99.12,270.3Z"/><path class="cls-7" d="M264.7,234.37h1.91c.35,1.67-.08,2.93-1.83,3.5C264.75,236.71,264.73,235.54,264.7,234.37Z"/><path class="cls-11" d="M26.33,51.88c.05,1.41,0,2.73-1.79,3.1C24.19,53.41,25,52.47,26.33,51.88Z"/><path class="cls-5" d="M199.84,265.29c1.38.18,3-.5,4,1C202.47,266.15,200.89,266.74,199.84,265.29Z"/><path class="cls-9" d="M112.11,265.24c1.08-1.36,2.59-.93,4-.94C115.06,265.85,113.5,265.19,112.11,265.24Z"/><path class="cls-10" d="M82.13,264.32l-.47,0h-.47L81,260.43l1-.2C82.08,261.59,82.1,263,82.13,264.32Z"/><path class="cls-7" d="M332.51,109.7c-1.45-1.23-.56-1.69.67-2A1.59,1.59,0,0,1,332.51,109.7Z"/><path class="cls-5" d="M195.49,264.35c1.21,0,2.5-.34,3.35.92C197.63,265.32,196.39,265.47,195.49,264.35Z"/><path class="cls-5" d="M203.8,266.32c1.13,0,2.34-.27,3,1C205.69,267.38,204.52,267.51,203.8,266.32Z"/><path class="cls-5" d="M216.77,272.34a2.21,2.21,0,0,1-2-1l0-.07a2,2,0,0,1,2,1Z"/><path class="cls-5" d="M218.69,273.42l-1.92-1.08,0-.06a2,2,0,0,1,2,1Z"/><path class="cls-5" d="M222.8,274.25l-.06,1.09a2.35,2.35,0,0,1-2.13-.85l.2-.23Z"/><path class="cls-5" d="M222.75,275.33a1.87,1.87,0,0,1,2,1C224,276.27,223.15,276.24,222.75,275.33Z"/><path class="cls-9" d="M84,277.31a2.62,2.62,0,0,1,2.34-1.07C85.76,277.15,84.86,277.23,84,277.31Z"/><path class="cls-5" d="M230.64,279.3c.88,0,1.69.07,2.1,1A2.16,2.16,0,0,1,230.64,279.3Z"/><path class="cls-5" d="M232.73,280.32a1.78,1.78,0,0,1,2,1A1.78,1.78,0,0,1,232.73,280.32Z"/><path class="cls-5" d="M220.61,274.49l-1.92-1.07.12-.15a2,2,0,0,1,2,1Z"/><path class="cls-5" d="M206.8,267.31l1,1Z"/><path class="cls-7" d="M263.71,245.42l.94-1Z"/><path class="cls-5" d="M228.81,278.21c.55-.78.78-.41.92.26Z"/><path class="cls-12" d="M149,2.1l13-.07,0,135.12c0,6.42.59,7,7,7.44,1.51,6.24,1.1,12.68,2.06,19-1.78,1.39-1.07,3.36-1.08,5.08-.07,14.24-.06,28.47-.08,42.7l.06.14-10-.25c-1.24-7,.54-14.59-1.27-21.22-5.55-20.35-1.44-40.89-2.6-61.29-.82-14.22-.32-28.52-1.29-42.72-.47-7,.37-14.1-1.08-20.76-1.61-7.39-1.57-14.66-1.75-22A4.09,4.09,0,0,0,148,38.9q0-11.47,0-22.94C150.11,11.47,148.5,6.71,149,2.1Z"/><path class="cls-13" d="M148,16q0,11.47,0,22.94a414,414,0,0,1-5.35,43.68C140.8,93.8,139,105,137.92,116.37c-1.07,10.82-2.69,21.6-4.59,32.31-.45,2.6,1.51,6.15-2.17,7.93a238.39,238.39,0,0,1-5.42-39.8c1.8-1.11,1.23-2.92,1.29-4.51.38-9.59-.07-19.16.81-28.79,1.14-12.35,0-24.81,1-37.25.89-11.06.17-22.24.15-33.37,1.55-.9,3-2.12,4.65-2.62,2.74-.82,5.93,0,8.3-2.27,2.73-.57,3,1.58,3.77,3.3S147.22,14.41,148,16Z"/><path class="cls-14" d="M142,8c-2.37,2.25-5.56,1.45-8.3,2.27-1.66.5-3.1,1.72-4.65,2.62-3.57,2.69-2.64,7.24-4.43,10.71-6.39,12.43-7.08,26-7.19,39.56-.06,7.35,1.44,14.76,2.77,22,1.92,10.52,2.76,21.24,5.59,31.6a238.39,238.39,0,0,0,5.42,39.8c1.58,14.83,5.33,29.3,7.35,44.06a12,12,0,0,1-.51,6.26c-1.92-5.24-4.05-10.41-5.71-15.73-6.7-21.35-11.34-43.23-15.65-65.14-2.36-12-3.11-24.29-4.45-36.47-1.3-11.89-1.28-23.84-1-35.79A102.61,102.61,0,0,1,115.91,26C119.32,14.87,127,6.31,142,8Z"/><path class="cls-8" d="M96.19,206.41a155.3,155.3,0,0,1-13.88-41.23c-3.12-17.76-4.5-35.77-6.09-53.73a383,383,0,0,0-7.47-48,41.14,41.14,0,0,0-7.71-16c-3.64-4.74-5.37-10.94-2.87-13.55,3.68-3.84,8.33-3.36,13-1.75l0,1.52-1.89.29c-3.8-.22-6.82,1-8.42,4.69s.79,5.87,2.8,8.32c1.57,1.9,2.93,4,4.38,6,.21.62.4,1.25.64,1.87C73.5,67.32,79.66,79.33,81.53,93c1.25,9.24,2.91,18.47,4.36,27.71,1,20.64,1.12,41.36,5.12,61.75,1.53,7.77,3,15.55,6.16,22.88Z"/><path class="cls-13" d="M85.89,120.75c-1.45-9.24-3.11-18.47-4.36-27.71-1.87-13.71-8-25.72-12.93-38.26-.24-.62-.43-1.25-.64-1.87,2.76-.31,2-2.45,2.25-4.17.63-5-1.22-9.84-1-14.8l1.89-.29,3.12.25,0,0a1.8,1.8,0,0,0,2,1l0,0c.33,1,1.13,1,2,1,4.27,3,6.8,6.07,6.33,12.43-1.16,15.67,1.06,31.32,2.48,47,.7,7.75.15,15.61.16,23.41A2.31,2.31,0,0,1,85.89,120.75Z"/><path class="cls-12" d="M169.94,257.42l-8.94,0c-.06-.65.14-1.62-.22-1.92-5.32-4.4-3.58-10.43-3.8-16-.36-9-.68-17.95-1-26.92l14-.12.09.89Z"/><path class="cls-13" d="M55.06,132.69c-3.47-11.36-4.52-23.2-6.8-34.8-1.86-9.48-2.2-19.42-9-27.28q0-13.35,0-26.72c5.6.42,8,2.86,8,8.4C47.1,66.85,49.61,81.1,51.9,95.4c1.71,10.7,3,21.48,4.25,32.24C56.35,129.32,56.9,131.34,55.06,132.69Z"/><path class="cls-10" d="M39.26,43.89q0,13.36,0,26.72c-3.43-2.55-6.89-5-10.26-7.66-2.17-1.69-2.17-3.94-1.18-6.27a30.9,30.9,0,0,1,5.5-8.79,6.64,6.64,0,0,0,3-3.14C37.25,44.1,37.9,42.81,39.26,43.89Z"/><path class="cls-9" d="M152,212.42c-4.8.88-9.58,2.1-14.42,2.56-7.48.71-13.85,5.55-21.49,5.42l0,0c11.4-5.28,23.28-8.64,35.92-8.94C152,211.8,152,212.11,152,212.42Z"/><path class="cls-14" d="M69.32,212.38l1-1.09c2.2,5.42,5.47,10.4,6.58,16.31C74.08,222.66,69.59,218.59,69.32,212.38Z"/><path class="cls-9" d="M116.07,220.4c-1.54,2.65-4.57,3-6.9,4.38-.69.42-1.67.68-1.82-.56-.06-.49.51-1.51.81-1.52,2.85-.1,5-2.64,7.93-2.27Z"/><path class="cls-10" d="M82.06,258.39c-1-.17-2.21.09-2.91-1,2.25-2.07,0-5.13,1.88-7.72C83.08,252.52,81.85,255.57,82.06,258.39Z"/><path class="cls-4" d="M152,212.42c0-.31,0-.62,0-.93l7.93-.25,10,.24c0,.32,0,.63,0,1l-14,.12Z"/><path class="cls-14" d="M101,213.55a8.18,8.18,0,0,1-2.82-5.33c2.43,1.3,2.89,3.05,3.22,4.88Z"/><path class="cls-9" d="M96.27,232.53c-.22,1.17-.68,2.17-2,2.44-.58.12-.93-.25-.78-.83.32-1.27,1.35-1.68,2.51-1.88Z"/><path class="cls-14" d="M101.4,213.1a2.33,2.33,0,0,1,1.59,2.18c0,.2-.41.59-.49.55a2.76,2.76,0,0,1-1.5-2.29C101.14,213.4,101.27,213.25,101.4,213.1Z"/><path class="cls-9" d="M101.27,229.56c-.36,1.8-1.74,1.82-3.15,1.82h0a3.36,3.36,0,0,1,2.9-2.11Z"/><path class="cls-2" d="M74.21,33.9l-3.12-.25,0-1.52A2.84,2.84,0,0,1,74.21,33.9Z"/><path class="cls-9" d="M104.06,227.35c.08-.82.22-1.59,1.29-1.56a.48.48,0,0,1,.34.31c0,1.08-.78,1.19-1.55,1.33Z"/><path class="cls-14" d="M96.19,206.41l1-1c.55.53,1.24,1.23.54,1.86S96.51,207.06,96.19,206.41Z"/><path class="cls-9" d="M101,229.27a2.16,2.16,0,0,1,2-.94l.11.1-1.89,1.13Z"/><path class="cls-9" d="M96,232.26a2.05,2.05,0,0,1,2.09-.88h0a2.1,2.1,0,0,1-1.85,1.15Z"/><path class="cls-2" d="M76.21,34.9a1.8,1.8,0,0,1-2-1C75.06,33.79,75.91,33.79,76.21,34.9Z"/><path class="cls-2" d="M78.12,35.89c-.82,0-1.62-.07-2-1C77.05,34.77,77.81,34.9,78.12,35.89Z"/><path class="cls-9" d="M104.14,227.43l-1,1-.11-.1,1-1Z"/><path class="cls-8" d="M273.72,120.68c3.65-11.72,9.68-22.46,14-33.92,3.78-5,7.41-10.09,11.39-14.92,2.65-3.21,6.55-4.22,10.43-4.86-12.81,7.51-17.61,20.63-23.89,32.85-6.67,13-10.71,27-16.08,40.42-5.27,13.19-8.18,27.1-9.84,41.22-1,8.66-3.08,17.21-2.93,26l0,.21c-4.28-2.54-.86-6-1-9-.35-9.43,1-18.72,2.57-28,1.15-6.92,5-13,5.48-20Q268.78,135.66,273.72,120.68Z"/><path class="cls-10" d="M181.9,3l2-.07a41.19,41.19,0,0,1,12,2q0,30.63,0,61.24c0,3.33-.53,6.73,3.71,8.15a2.37,2.37,0,0,1,1.26,2.53c-.41,7.78,1.71,15.43,1.8,23,.49,39.16.23,78.32.22,117.49l-14-3.86c1.68-1.44,1.13-3.41,1-5.15-.83-15.06-1-30.13-1-45.22,0-5,2.12-10.79-3.54-14.56-.37-.25-.37-1.25-.33-1.89,1-15.76-3.32-31.26-2.1-47.05.48-6.27.1-12.62.06-18.93,0-1.55.58-3.51-1.89-3.92,3-21.3,4.48-42.91,12.23-63.45-4.29,4.2-6.94,9.31-9.37,14.57-2.7-.52-1.9-2.68-1.92-4.32C181.87,16.74,181.9,9.87,181.9,3Z"/><path class="cls-15" d="M202.84,217.39c0-39.17.27-78.33-.22-117.49-.09-7.61-2.21-15.26-1.8-23a2.37,2.37,0,0,0-1.26-2.53c-4.24-1.42-3.71-4.82-3.71-8.15q.08-30.62,0-61.24c4.79-.28,9.35,1,13.94,2-.55,25,1.73,50,1,75,0,.33,0,.66,0,1a3.6,3.6,0,0,0,2.3,4c3.41,1.38,3.72,4.2,3.7,7.37q-.09,20.13,0,40.27c0,1.73-.69,3.7,1.06,5.1v7.94c.27,9.34-1.73,18.59-1.07,27.94q0,13,0,25.94,0,10,0,20l-5-1c-1.41-1.65-3.31-.75-5-1h0Z"/><path class="cls-11" d="M263.83,150.64c-.46,7-4.33,13.08-5.48,20-1.56,9.32-2.92,18.61-2.57,28,.1,3-3.32,6.47,1,9a2.36,2.36,0,0,0,0,.53c-1.63.24-1.87,1.41-2.12,2.81a101.34,101.34,0,0,0-1.88,16.39l0,0c-.32,0-.64,0-1,0-2.35-7-2.05-14.22-2-21.43,0-2.56.17-4.92-3.19-5.82-2.23-.59-1.8-2.89-1.8-4.68,0-6.47.09-12.95,0-19.42-.27-14.72,0-29.51-1.16-44.16-1.38-16.91-.31-33.79-.8-50.67-.09-3.31-.18-6.56-2.09-9.45,4.15-13.47,11.53-25.82,14-39.89a2.76,2.76,0,0,1,1,2.65C255,44.32,256.82,54,256.8,63.8c0,12.42,1.28,24.87.72,37.24-.59,12.92,1,25.66,1.34,38.49C259,143.56,260.06,147.89,263.83,150.64Z"/><path class="cls-9" d="M217.91,139.63c-1.75-1.4-1-3.37-1.06-5.1q-.09-20.15,0-40.27c0-3.17-.29-6-3.7-7.37a3.6,3.6,0,0,1-2.3-4c0-.33,0-.66,0-1,.72-25-1.56-49.95-1-74.95,7.53.74,14.75,2.83,21.95,5-.56,8.44,1.67,16.77,1,25.21-.13,1.56.23,3.25,1.45,4.07,3.76,2.52,2.88,6.29,2.21,9.44a17.36,17.36,0,0,0,.35,9.2c-2.43,9.38-6.29,18.31-8.27,27.86-1.79,8.68-5.13,17-5.81,26a21.37,21.37,0,0,0-2,7.52C220,127.38,218.87,133.5,217.91,139.63Z"/><path class="cls-14" d="M222.73,113.7c.68-8.94,4-17.28,5.81-26,2-9.55,5.84-18.48,8.27-27.86.62-.72,1.53-1.34,1.83-2.17a164,164,0,0,1,8.11-19.81c3.73-4.09,5.5-9.29,8.06-14.65,2,3.26-.85,5.93-.15,8.63-2.45,14.07-9.83,26.42-14,39.89-3.37,4.5-4.72,9.94-6.91,15-4,8.63-5.86,18-9,26.94Z"/><path class="cls-11" d="M246.75,37.9a164,164,0,0,0-8.11,19.81c-.3.83-1.21,1.45-1.83,2.17a17.36,17.36,0,0,1-.35-9.2c.67-3.15,1.55-6.92-2.21-9.44-1.22-.82-1.58-2.51-1.45-4.07.65-8.44-1.58-16.77-1-25.21a24.87,24.87,0,0,1,3.46.1c7.94,1.27,8.51,2,8.51,10.1,0,3.46-.07,6.93,0,10.38A5.89,5.89,0,0,0,246.75,37.9Z"/><path class="cls-9" d="M224.8,113.7c3.11-8.94,4.93-18.31,9-26.94,1.17,1.18,2.35,2.34,2,4.26a11.88,11.88,0,0,0,0,2c-.72,27.49,1.06,54.93,1.21,82.41.08,14.09,2.43,28.16,3.6,42.26.34,4.11.17,8.28.14,12.42,0,3.43-2.55,3.3-4.94,3.3l0,0c-.07-2-1.53-2-3-2h0a2,2,0,0,0-2-1h0l-1-1h0a2,2,0,0,0-2-1h0a2,2,0,0,0-2-1h0a2,2,0,0,0-2-1h0l-1-1h0c-.72-1.17-1.9-1-3-1a2,2,0,0,0-2-1h0l-1-2q0-10,0-20a156.47,156.47,0,0,0,2-25.94l2-27.93Q222.78,130.64,224.8,113.7Z"/><path class="cls-4" d="M248.74,252.32c.53,1.29,1.62,2.76-1,3v-5.14C249.1,250.74,248.57,251.65,248.74,252.32Z"/><path class="cls-14" d="M251.77,227.4c.33,0,.65,0,1,0-.14,1.61.63,3.68-2,4C251.07,230.06,251.42,228.73,251.77,227.4Z"/><path class="cls-14" d="M249.74,233.36l-.09,2c-.43-.13-1.2-.19-1.23-.39C248.24,234,249,233.63,249.74,233.36Z"/><path class="cls-14" d="M250.74,231.36a2,2,0,0,1-1,2A1.88,1.88,0,0,1,250.74,231.36Z"/><path class="cls-11" d="M246.74,245.35a2.06,2.06,0,0,1-1-2v0a2.07,2.07,0,0,1,1,2Z"/><path class="cls-11" d="M246.75,245.34l.74,1.06-.37.24c-.13-.43-.26-.86-.38-1.29Z"/><path class="cls-11" d="M242.75,240.37l-.42-.24.43.22Z"/><path class="cls-14" d="M246.75,237.37l-.44.41c0-.09,0-.22.07-.27a1.39,1.39,0,0,1,.35-.16Z"/><path class="cls-14" d="M246.73,237.35l.45-.46c0,.1,0,.24-.06.29a1.08,1.08,0,0,1-.37.19Z"/><path class="cls-11" d="M244.75,242.34l1,1v0l-1-1Z"/><path class="cls-11" d="M244.74,242.36l-1-1h0l1,1Z"/><path class="cls-11" d="M243.74,241.36l-1-1v0c.33.33.67.66,1,1Z"/><path class="cls-1" d="M205.61,353.21c-3.39-.31-5.32-2.27-5.39-5.41s2.14-4.75,5.14-4.77,5.07,1.91,5,4.87A5.1,5.1,0,0,1,205.61,353.21Z"/><path class="cls-1" d="M123.16,352.39c-3.93-.1-5.88-2.18-5.83-5.28,0-3.28,2.65-4.93,5.72-4.94,3.28,0,4.65,2.45,4.45,5.34C127.32,350.23,126.39,352.86,123.16,352.39Z"/><path class="cls-15" d="M220.81,274.26a1115.84,1115.84,0,0,1-4-2,2,2,0,0,0-2-1c-1-2.07-3-2.6-5-3.06.08-10.71.15-21.41-.9-32.1a43,43,0,0,1,.93-14.72h2l6,2h0l1,1c-.93,4.9-3.07,10,2.91,13.52,1.57.93,1.08,3,1.09,4.62q0,15.84,0,31.68Z"/><path class="cls-5" d="M232.78,231.39c1.44,0,2.9-.07,3,2A3,3,0,0,1,232.78,231.39Z"/><path class="cls-11" d="M219.81,224.4c1.1,0,2.28-.17,3,1C221.71,225.37,220.52,225.58,219.81,224.4Z"/><path class="cls-11" d="M227.79,228.39a2,2,0,0,1,2,1A2,2,0,0,1,227.79,228.39Z"/><path class="cls-5" d="M230.79,230.39a2,2,0,0,1,2,1A2,2,0,0,1,230.79,230.39Z"/><path class="cls-11" d="M218.8,224.43l-1-1a2,2,0,0,1,2,1Z"/><path class="cls-11" d="M223.8,226.4a2,2,0,0,1,2,1A2,2,0,0,1,223.8,226.4Z"/><path class="cls-11" d="M225.8,227.39a2,2,0,0,1,2,1A2,2,0,0,1,225.8,227.39Z"/><path class="cls-11" d="M229.79,229.39l1,1Z"/><path class="cls-11" d="M222.8,225.4l1,1Z"/><path class="cls-13" d="M169.94,257.42l.09-44.1c8.15-.54,15.93,1.75,23.82,3.17-3.4,15.66,1.74,31.13,1,46.73C186.75,260.49,178.26,259.32,169.94,257.42Z"/><path class="cls-5" d="M193.85,216.49c-7.89-1.42-15.67-3.71-23.82-3.17l-.09-.89c0-.32,0-.63,0-1l0-.13,18.91,2.18,14,3.86,4,2C202.23,219.72,198.17,217.54,193.85,216.49Z"/><path class="cls-5" d="M211.83,221.41h-2l-3-2c1.69.23,3.59-.67,5,1Z"/><path class="cls-14" d="M252.71,227.42A101.34,101.34,0,0,1,254.59,211c.25-1.4.49-2.57,2.12-2.81,0,.41.07.83.11,1.24A59.7,59.7,0,0,1,252.71,227.42Z"/><path class="cls-13" d="M181.9,3c0,6.87,0,13.74,0,20.61,0,1.64-.78,3.8,1.92,4.32a12.79,12.79,0,0,1-.7,2.35c-11.53,22-13.81,46-15.09,70.12-.78,14.71-.1,29.48.92,44.19-6.43-.41-7-1-7-7.44L161.94,2C168.62,1.89,175.29,1.79,181.9,3Z"/><path class="cls-13" d="M188.81,213.53l-18.91-2.18c0-14.24,0-28.47.07-42.71,0-1.72-.7-3.69,1.07-5.08l4,32.87c.54,4.37.59,8.83,2.54,12.92A33,33,0,0,0,176,196.48c-2.41-40.06.63-79.9,5.05-119.67,2.47.41,1.88,2.37,1.89,3.92,0,6.31.42,12.66-.06,18.93-1.22,15.79,3.1,31.29,2.1,47.05,0,.64,0,1.64.33,1.89,5.66,3.77,3.53,9.56,3.54,14.56,0,15.09.22,30.16,1,45.22C189.94,210.12,190.49,212.09,188.81,213.53Z"/><path class="cls-7" d="M175,196.43l-4-32.87c-.95-6.29-.54-12.73-2-19-1-14.71-1.7-29.48-.92-44.19,1.28-24.12,3.56-48.14,15.09-70.12a12.79,12.79,0,0,0,.7-2.35c2.43-5.26,5.08-10.37,9.37-14.57C185.48,33.9,184,55.51,181,76.81c-4.42,39.77-7.46,79.61-5.05,119.67C175.64,196.47,175.32,196.46,175,196.43Z"/><path class="cls-10" d="M125.74,116.81c-2.83-10.36-3.67-21.08-5.59-31.6-1.33-7.29-2.83-14.7-2.77-22,.11-13.52.8-27.13,7.19-39.56,1.79-3.47.86-8,4.43-10.71,0,11.13.74,22.31-.15,33.37-1,12.44.13,24.9-1,37.25-.88,9.63-.43,19.2-.81,28.79C127,113.89,127.54,115.7,125.74,116.81Z"/><path class="cls-10" d="M69.2,33.94c-.21,5,1.64,9.79,1,14.8-.21,1.72.51,3.86-2.25,4.17-1.45-2-2.81-4.06-4.38-6-2-2.45-4.35-4.71-2.8-8.32S65.4,33.72,69.2,33.94Z"/><path class="cls-2" d="M224.8,113.7q-2,16.93-4,33.88h-2.86v-7.94c1-6.13,2-12.25,2.84-18.41a21.37,21.37,0,0,1,2-7.52Z"/><path class="cls-7" d="M217.91,147.57h2.86l-2,27.93h-1.95C216.18,166.16,218.18,156.91,217.91,147.57Z"/><path class="cls-11" d="M216.84,175.51h1.95a156.47,156.47,0,0,1-2,25.94Q216.83,188.48,216.84,175.51Z"/><path class="cls-11" d="M211.83,221.41v-1l5,1,1,2Z"/><path class="cls-5" d="M175,196.43c.32,0,.64,0,.95,0a33,33,0,0,1,1.59,12.87C175.59,205.26,175.54,200.8,175,196.43Z"/></g></g></svg>